<?xml version="1.0" encoding="UTF-8" standalone="no"?>
<!-- Created with Inkscape (http://www.inkscape.org/) -->

<svg
   xmlns:dc="http://purl.org/dc/elements/1.1/"
   xmlns:cc="http://creativecommons.org/ns#"
   xmlns:rdf="http://www.w3.org/1999/02/22-rdf-syntax-ns#"
   xmlns:svg="http://www.w3.org/2000/svg"
   xmlns="http://www.w3.org/2000/svg"
   xmlns:sodipodi="http://sodipodi.sourceforge.net/DTD/sodipodi-0.dtd"
   xmlns:inkscape="http://www.inkscape.org/namespaces/inkscape"
   width="210mm"
   height="297mm"
   id="svg1901"
   sodipodi:version="0.32"
   inkscape:version="0.48.3.1 r9886"
   sodipodi:docname="ABCD.svg"
   version="1.1">
  <defs
     id="defs1903" />
  <sodipodi:namedview
     id="base"
     pagecolor="#ffffff"
     bordercolor="#666666"
     borderopacity="1.0"
     inkscape:pageopacity="0.0"
     inkscape:pageshadow="2"
     inkscape:zoom="0.7"
     inkscape:cx="142.14286"
     inkscape:cy="520"
     inkscape:document-units="px"
     inkscape:current-layer="layer1"
     inkscape:window-width="1445"
     inkscape:window-height="702"
     inkscape:window-x="177"
     inkscape:window-y="24"
     showgrid="false"
     inkscape:window-maximized="0" />
  <metadata
     id="metadata1906">
    <rdf:RDF>
      <cc:Work
         rdf:about="">
        <dc:format>image/svg+xml</dc:format>
        <dc:type
           rdf:resource="http://purl.org/dc/dcmitype/StillImage" />
        <dc:title></dc:title>
      </cc:Work>
    </rdf:RDF>
  </metadata>
  <g
     inkscape:label="Taso 1"
     inkscape:groupmode="layer"
     id="layer1"
     style="opacity:1">
    <rect
       id="rect3174-57"
       width="40"
       height="42.857143"
       x="109.28574"
       y="495.21933"
       style="fill:#ffff00"
       inkscape:export-filename="/home/paavoto/src/neur2/src_copy/data/pattern/A7.png"
       inkscape:export-xdpi="72"
       inkscape:export-ydpi="72" />
    <rect
       id="rect3174-7-4"
       width="40"
       height="42.857143"
       x="168.02043"
       y="495.21933"
       style="fill:#ffff00"
       inkscape:export-filename="/home/paavoto/src/neur2/src_copy/data/pattern/B7.png"
       inkscape:export-xdpi="72"
       inkscape:export-ydpi="72" />
    <rect
       id="rect3174-5-3"
       width="40"
       height="42.857143"
       x="226.75514"
       y="495.21933"
       style="fill:#ffff00"
       inkscape:export-filename="/home/paavoto/src/neur2/src_copy/data/pattern/C7.png"
       inkscape:export-xdpi="72"
       inkscape:export-ydpi="72" />
    <rect
       id="rect3174-8-5"
       width="40"
       height="42.857143"
       x="285.48984"
       y="495.21933"
       style="fill:#ffff00"
       inkscape:export-filename="/home/paavoto/src/neur2/src_copy/data/pattern/D7.png"
       inkscape:export-xdpi="72"
       inkscape:export-ydpi="72" />
    <rect
       id="rect3174-1-2"
       width="40"
       height="42.857143"
       x="344.22455"
       y="495.21933"
       style="fill:#ffff00" />
    <rect
       id="rect3174-79-5"
       width="40"
       height="42.857143"
       x="402.95926"
       y="495.21933"
       style="fill:#ffff00" />
    <rect
       id="rect3174-6-12"
       width="40"
       height="42.857143"
       x="461.69394"
       y="495.21933"
       style="fill:#ffff00" />
    <rect
       id="rect3174-51-6"
       width="40"
       height="42.857143"
       x="520.42853"
       y="495.21933"
       style="fill:#ffff00" />
    <rect
       id="rect3174-519"
       width="40"
       height="42.857143"
       x="113.00002"
       y="415.79074"
       style="fill:#ffff00"
       inkscape:export-filename="/home/paavoto/src/neur2/src_copy/data/pattern/ABCD/A5.png"
       inkscape:export-xdpi="72"
       inkscape:export-ydpi="72" />
    <rect
       id="rect3174-7-1"
       width="40"
       height="42.857143"
       x="170.30614"
       y="415.79074"
       style="fill:#ffff00"
       inkscape:export-filename="/home/paavoto/src/neur2/src_copy/data/pattern/B5.png"
       inkscape:export-xdpi="72"
       inkscape:export-ydpi="72" />
    <rect
       id="rect3174-5-5"
       width="40"
       height="42.857143"
       x="227.61226"
       y="415.79074"
       style="fill:#ffff00"
       inkscape:export-filename="/home/paavoto/src/neur2/src_copy/data/pattern/C5.png"
       inkscape:export-xdpi="72"
       inkscape:export-ydpi="72" />
    <rect
       id="rect3174-8-11"
       width="40"
       height="42.857143"
       x="284.91837"
       y="415.79074"
       style="fill:#ffff00"
       inkscape:export-filename="/home/paavoto/src/neur2/src_copy/data/pattern/D5.png"
       inkscape:export-xdpi="72"
       inkscape:export-ydpi="72" />
    <rect
       id="rect3174-1-7"
       width="40"
       height="42.857143"
       x="342.22449"
       y="415.79074"
       style="fill:#ffff00"
       inkscape:export-filename="/home/paavoto/src/neur2/src_copy/data/pattern/A6.png"
       inkscape:export-xdpi="72"
       inkscape:export-ydpi="72" />
    <rect
       id="rect3174-79-4"
       width="40"
       height="42.857143"
       x="399.53061"
       y="415.79074"
       style="fill:#ffff00"
       inkscape:export-filename="/home/paavoto/src/neur2/src_copy/data/pattern/B6.png"
       inkscape:export-xdpi="72"
       inkscape:export-ydpi="72" />
    <rect
       id="rect3174-6-6"
       width="40"
       height="42.857143"
       x="456.83673"
       y="415.79074"
       style="fill:#ffff00"
       inkscape:export-filename="/home/paavoto/src/neur2/src_copy/data/pattern/C6.png"
       inkscape:export-xdpi="72"
       inkscape:export-ydpi="72" />
    <rect
       id="rect3174-51-2"
       width="40"
       height="42.857143"
       x="514.14288"
       y="415.79074"
       style="fill:#ffff00"
       inkscape:export-filename="/home/paavoto/src/neur2/src_copy/data/pattern/D6.png"
       inkscape:export-xdpi="72"
       inkscape:export-ydpi="72" />
    <rect
       id="rect3174-3"
       width="40"
       height="42.857143"
       x="105.85716"
       y="329.21933"
       style="fill:#ffff00"
       inkscape:export-filename="/home/paavoto/src/neur2/src_copy/data/pattern/ABCD/A3.png"
       inkscape:export-xdpi="72"
       inkscape:export-ydpi="72" />
    <rect
       id="rect3174-7-3"
       width="40"
       height="42.857143"
       x="164.59186"
       y="329.21933"
       style="fill:#ffff00"
       inkscape:export-filename="/home/paavoto/src/neur2/src_copy/data/pattern/ABCD/B3.png"
       inkscape:export-xdpi="72"
       inkscape:export-ydpi="72" />
    <rect
       id="rect3174-5-1"
       width="40"
       height="42.857143"
       x="223.32657"
       y="329.21933"
       style="fill:#ffff00"
       inkscape:export-filename="/home/paavoto/src/neur2/src_copy/data/pattern/ABCD/C3.png"
       inkscape:export-xdpi="72"
       inkscape:export-ydpi="72" />
    <rect
       id="rect3174-8-1"
       width="40"
       height="42.857143"
       x="282.06125"
       y="329.21933"
       style="fill:#ffff00"
       inkscape:export-filename="/home/paavoto/src/neur2/src_copy/data/pattern/ABCD/D3.png"
       inkscape:export-xdpi="72"
       inkscape:export-ydpi="72" />
    <rect
       id="rect3174-1-9"
       width="40"
       height="42.857143"
       x="340.79596"
       y="329.21933"
       style="fill:#ffff00"
       inkscape:export-filename="/home/paavoto/src/neur2/src_copy/data/pattern/ABCD/A4.png"
       inkscape:export-xdpi="72"
       inkscape:export-ydpi="72" />
    <rect
       id="rect3174-79-8"
       width="40"
       height="42.857143"
       x="397.53067"
       y="329.21933"
       style="fill:#ffff00"
       inkscape:export-filename="/home/paavoto/src/neur2/src_copy/data/pattern/ABCD/B4.png"
       inkscape:export-xdpi="72"
       inkscape:export-ydpi="72" />
    <rect
       id="rect3174-6-1"
       width="40"
       height="42.857143"
       x="456.26535"
       y="329.21933"
       style="fill:#ffff00"
       inkscape:export-filename="/home/paavoto/src/neur2/src_copy/data/pattern/ABCD/C4.png"
       inkscape:export-xdpi="72"
       inkscape:export-ydpi="72" />
    <rect
       id="rect3174-51-1"
       width="40"
       height="42.857143"
       x="513"
       y="329.21933"
       style="fill:#ffff00"
       inkscape:export-filename="/home/paavoto/src/neur2/src_copy/data/pattern/ABCD/D4.png"
       inkscape:export-xdpi="72"
       inkscape:export-ydpi="72" />
    <rect
       id="rect3174"
       width="40"
       height="42.857143"
       x="105.42857"
       y="215.79076"
       style="fill:#ffff00"
       inkscape:export-filename="/home/paavoto/src/neur2/src_copy/data/pattern/A1.png"
       inkscape:export-xdpi="90"
       inkscape:export-ydpi="90" />
    <rect
       id="rect3174-7"
       width="40"
       height="42.857143"
       x="164.16327"
       y="215.79076"
       style="fill:#ffff00"
       inkscape:export-filename="/home/paavoto/src/neur2/src_copy/data/pattern/ABCD/B1.png"
       inkscape:export-xdpi="72"
       inkscape:export-ydpi="72" />
    <rect
       id="rect3174-5"
       width="40"
       height="42.857143"
       x="222.89798"
       y="215.79076"
       style="fill:#ffff00"
       inkscape:export-filename="/home/paavoto/src/neur2/src_copy/data/pattern/ABCD/C1.png"
       inkscape:export-xdpi="72"
       inkscape:export-ydpi="72" />
    <rect
       id="rect3174-8"
       width="40"
       height="42.857143"
       x="281.63266"
       y="215.79076"
       style="fill:#ffff00"
       inkscape:export-filename="/home/paavoto/src/neur2/src_copy/data/pattern/ABCD/D1.png"
       inkscape:export-xdpi="72"
       inkscape:export-ydpi="72" />
    <rect
       id="rect3174-1"
       width="40"
       height="42.857143"
       x="340.36737"
       y="215.79076"
       style="fill:#ffff00"
       inkscape:export-filename="/home/paavoto/src/neur2/src_copy/data/pattern/ABCD/A2.png"
       inkscape:export-xdpi="72"
       inkscape:export-ydpi="72" />
    <rect
       id="rect3174-79"
       width="40"
       height="42.857143"
       x="399.10208"
       y="215.79076"
       style="fill:#ffff00"
       inkscape:export-filename="/home/paavoto/src/neur2/src_copy/data/pattern/ABCD/B2.png"
       inkscape:export-xdpi="72"
       inkscape:export-ydpi="72" />
    <rect
       id="rect3174-6"
       width="40"
       height="42.857143"
       x="457.83676"
       y="215.79076"
       style="fill:#ffff00"
       inkscape:export-filename="/home/paavoto/src/neur2/src_copy/data/pattern/ABCD/C2.png"
       inkscape:export-xdpi="72"
       inkscape:export-ydpi="72" />
    <rect
       id="rect3174-51"
       width="40"
       height="42.857143"
       x="516.57141"
       y="215.79076"
       style="fill:#ffff00"
       inkscape:export-filename="/home/paavoto/src/neur2/src_copy/data/pattern/ABCD/D2.png"
       inkscape:export-xdpi="72"
       inkscape:export-ydpi="72" />
    <path
       inkscape:connector-curvature="0"
       id="path3101"
       style="font-size:40px;font-style:normal;font-weight:normal;line-height:125%;letter-spacing:0px;word-spacing:0px;fill:#000000;fill-opacity:1;stroke:none;font-family:Sans"
       d="m 127.95759,228.4188 -5.35156,14.51172 10.72265,0 -5.37109,-14.51172 m -2.22656,-3.88672 4.47265,0 11.11328,29.16016 -4.10156,0 -2.65625,-7.48047 -13.14453,0 -2.65625,7.48047 -4.16016,0 11.13282,-29.16016"
       inkscape:export-filename="/home/paavoto/src/neur2/src_copy/data/pattern/A1.png"
       inkscape:export-xdpi="90"
       inkscape:export-ydpi="90" />
    <path
       inkscape:connector-curvature="0"
       id="path3103"
       style="font-size:40px;font-style:normal;font-weight:normal;line-height:125%;letter-spacing:0px;word-spacing:0px;fill:#000000;fill-opacity:1;stroke:none;font-family:Sans"
       d="m 179.29786,239.76646 0,10.68359 6.32813,0 c 2.12238,1e-5 3.69139,-0.43619 4.70703,-1.30859 1.02862,-0.88541 1.54295,-2.23307 1.54297,-4.04297 -2e-5,-1.82291 -0.51435,-3.16405 -1.54297,-4.02344 -1.01564,-0.87238 -2.58465,-1.30858 -4.70703,-1.30859 l -6.32813,0 m 0,-11.99219 0,8.78906 5.83985,0 c 1.92706,2e-5 3.35935,-0.35805 4.29687,-1.07422 0.9505,-0.72914 1.42576,-1.83591 1.42578,-3.32031 -2e-5,-1.47133 -0.47528,-2.57159 -1.42578,-3.30078 -0.93752,-0.72914 -2.36981,-1.09372 -4.29687,-1.09375 l -5.83985,0 m -3.94531,-3.24219 10.07812,0 c 3.0078,3e-5 5.32551,0.62503 6.95313,1.875 1.62758,1.25003 2.44138,3.02737 2.44141,5.33203 -3e-5,1.78388 -0.41669,3.20315 -1.25,4.25782 -0.83336,1.0547 -2.05732,1.71225 -3.67188,1.97265 1.94008,0.41669 3.44399,1.28908 4.51172,2.61719 1.0807,1.31512 1.62107,2.96225 1.62109,4.94141 -2e-5,2.60417 -0.88544,4.61589 -2.65625,6.03515 -1.77085,1.41928 -4.29038,2.12891 -7.55859,2.12891 l -10.46875,0 0,-29.16016"
       inkscape:export-filename="/home/paavoto/src/neur2/src_copy/data/pattern/ABCD/B1.png"
       inkscape:export-xdpi="72"
       inkscape:export-ydpi="72" />
    <path
       inkscape:connector-curvature="0"
       id="path3105"
       style="font-size:40px;font-style:normal;font-weight:normal;line-height:125%;letter-spacing:0px;word-spacing:0px;fill:#000000;fill-opacity:1;stroke:none;font-family:Sans"
       d="m 255.18891,226.75864 0,4.16015 c -1.32815,-1.23695 -2.74742,-2.16143 -4.25782,-2.77343 -1.49741,-0.61196 -3.09246,-0.91795 -4.78515,-0.91797 -3.33335,2e-5 -5.88543,1.02216 -7.65625,3.0664 -1.77084,2.03127 -2.65626,4.97398 -2.65625,8.82813 -1e-5,3.84116 0.88541,6.78386 2.65625,8.82812 1.77082,2.03126 4.3229,3.04688 7.65625,3.04688 1.69269,0 3.28774,-0.30599 4.78515,-0.91797 1.5104,-0.61198 2.92967,-1.53645 4.25782,-2.77344 l 0,4.1211 c -1.38024,0.9375 -2.84508,1.64062 -4.39453,2.10937 -1.53648,0.46875 -3.16409,0.70313 -4.88282,0.70313 -4.41407,0 -7.89063,-1.34766 -10.42968,-4.04297 -2.53907,-2.70833 -3.8086,-6.39973 -3.8086,-11.07422 0,-4.68748 1.26953,-8.37888 3.8086,-11.07422 2.53905,-2.70831 6.01561,-4.06247 10.42968,-4.0625 1.74478,3e-5 3.3854,0.2344 4.92188,0.70312 1.54945,0.45576 3.00128,1.14587 4.35547,2.07032"
       inkscape:export-filename="/home/paavoto/src/neur2/src_copy/data/pattern/ABCD/C1.png"
       inkscape:export-xdpi="72"
       inkscape:export-ydpi="72" />
    <path
       inkscape:connector-curvature="0"
       id="path3107"
       style="font-size:40px;font-style:normal;font-weight:normal;line-height:125%;letter-spacing:0px;word-spacing:0px;fill:#000000;fill-opacity:1;stroke:none;font-family:Sans"
       d="m 292.85731,227.77427 0,22.67578 4.76562,0 c 4.02342,1e-5 6.96613,-0.91145 8.82813,-2.73437 1.87497,-1.82291 2.81247,-4.70051 2.8125,-8.63282 -3e-5,-3.90623 -0.93753,-6.7643 -2.8125,-8.57421 -1.862,-1.8229 -4.80471,-2.73435 -8.82813,-2.73438 l -4.76562,0 m -3.94532,-3.24219 8.10547,0 c 5.65103,3e-5 9.79816,1.17842 12.44141,3.53516 2.6432,2.34377 3.96481,6.01564 3.96484,11.01562 -3e-5,5.02606 -1.32815,8.71746 -3.98437,11.07422 -2.65627,2.35678 -6.79689,3.53516 -12.42188,3.53516 l -8.10547,0 0,-29.16016"
       inkscape:export-filename="/home/paavoto/src/neur2/src_copy/data/pattern/ABCD/D1.png"
       inkscape:export-xdpi="72"
       inkscape:export-ydpi="72" />
    <path
       inkscape:connector-curvature="0"
       id="path3110"
       style="font-size:40px;font-style:normal;font-variant:normal;font-weight:normal;font-stretch:normal;text-align:start;line-height:125%;letter-spacing:0px;word-spacing:0px;writing-mode:lr-tb;text-anchor:start;fill:#000000;fill-opacity:1;stroke:none;font-family:Serif;-inkscape-font-specification:Serif"
       d="m 121.24219,355.03016 -1.52344,4.19923 c -0.11719,0.3125 -0.20834,0.625 -0.27344,0.9375 -0.0651,0.29948 -0.0977,0.5599 -0.0977,0.78125 -1e-5,0.67708 0.21483,1.17188 0.64453,1.48437 0.4427,0.31251 1.11327,0.46876 2.01172,0.46875 l 0.91797,0 0,1.67969 -9.76563,0 0,-1.67969 0.76172,0 c 0.39062,1e-5 0.72265,-0.0391 0.99609,-0.11718 0.27344,-0.0911 0.52083,-0.25392 0.74219,-0.48829 0.22135,-0.23438 0.42968,-0.55338 0.625,-0.95703 0.20833,-0.40364 0.43619,-0.92447 0.68359,-1.5625 l 8.86719,-23.75 3.125,0 9.04297,24.7461 c 0.15622,0.41667 0.31247,0.76172 0.46875,1.03515 0.16925,0.27344 0.36456,0.4948 0.58594,0.66407 0.22133,0.15625 0.47523,0.26693 0.76172,0.33202 0.28643,0.0651 0.62497,0.0977 1.01562,0.0976 l 0.52734,0 0,1.67969 -10.99609,0 0,-1.67969 0.91797,0 c 1.60154,10e-6 2.40232,-0.63801 2.40234,-1.91406 -2e-5,-0.22134 -0.0326,-0.44921 -0.0977,-0.68358 -0.0521,-0.23438 -0.13023,-0.50131 -0.23438,-0.80078 l -1.60156,-4.47266 -10.50781,0 m 7.30468,-9.00392 c -0.41668,-1.18486 -0.80079,-2.29163 -1.15234,-3.32031 -0.33855,-1.04163 -0.6185,-2.04424 -0.83984,-3.00781 -0.0912,0.48179 -0.20184,0.95054 -0.33203,1.40625 -0.1172,0.44273 -0.24741,0.89846 -0.39063,1.36719 -0.14324,0.46877 -0.306,0.96356 -0.48828,1.48437 -0.1823,0.50783 -0.39064,1.07424 -0.625,1.69923 l -2.71484,7.36327 9.02343,0 -2.48047,-6.99219"
       inkscape:export-filename="/home/paavoto/src/neur2/src_copy/data/pattern/ABCD/A3.png"
       inkscape:export-xdpi="72"
       inkscape:export-ydpi="72" />
    <path
       inkscape:connector-curvature="0"
       id="path3112"
       style="font-size:40px;font-style:normal;font-variant:normal;font-weight:normal;font-stretch:normal;text-align:start;line-height:125%;letter-spacing:0px;word-spacing:0px;writing-mode:lr-tb;text-anchor:start;fill:#000000;fill-opacity:1;stroke:none;font-family:Serif;-inkscape-font-specification:Serif"
       d="m 195.29181,343.17469 c -2e-5,0.89846 -0.13023,1.68622 -0.39062,2.36328 -0.24742,0.6771 -0.59247,1.26955 -1.03516,1.77735 -0.44273,0.50783 -0.97007,0.93751 -1.58203,1.28906 -0.59898,0.33856 -1.25002,0.62501 -1.95313,0.85937 l 0,0.15625 c 0.91144,0.15627 1.74478,0.4232 2.5,0.80078 0.75519,0.37762 1.39972,0.87241 1.9336,1.48438 0.54685,0.59897 0.97003,1.31512 1.26953,2.14844 0.29945,0.82032 0.44919,1.75782 0.44922,2.8125 -3e-5,2.57813 -0.84638,4.51172 -2.53907,5.80078 -1.69272,1.27604 -4.27085,1.91406 -7.73437,1.91406 l -11.91406,0 0,-1.67969 0.50781,0 c 0.45573,10e-6 0.8789,-0.0326 1.26953,-0.0976 0.40364,-0.0651 0.75521,-0.19531 1.05469,-0.39063 0.29947,-0.20833 0.53385,-0.5013 0.70312,-0.8789 0.16927,-0.3776 0.2539,-0.87891 0.25391,-1.50391 l 0,-19.60938 c -1e-5,-0.58591 -0.0911,-1.05466 -0.27344,-1.40625 -0.16927,-0.36455 -0.40365,-0.6445 -0.70312,-0.83984 -0.29949,-0.19528 -0.65105,-0.31898 -1.05469,-0.37109 -0.39063,-0.0651 -0.80729,-0.0976 -1.25,-0.0977 l -0.50781,0 0,-1.67969 10.72265,0 c 3.46353,3e-5 6.04165,0.57946 7.73438,1.73828 1.69269,1.14586 2.53904,2.94925 2.53906,5.41016 m -13.16406,19.41406 3.88672,0 c 1.1328,1e-5 2.08983,-0.10416 2.87109,-0.3125 0.78123,-0.20833 1.41925,-0.54036 1.91406,-0.99609 0.49478,-0.46875 0.85285,-1.07421 1.07422,-1.81641 0.22134,-0.74218 0.33201,-1.64713 0.33203,-2.71484 -2e-5,-1.04166 -0.0977,-1.9466 -0.29297,-2.71484 -0.19533,-0.76822 -0.53387,-1.40624 -1.01562,-1.91407 -0.46877,-0.5078 -1.09377,-0.8854 -1.875,-1.13281 -0.78127,-0.24738 -1.75783,-0.37108 -2.92969,-0.37109 l -3.96484,0 0,11.97265 m 0,-13.96484 2.77344,0 c 1.17186,2e-5 2.14842,-0.10415 2.92968,-0.3125 0.78124,-0.20832 1.40624,-0.52733 1.875,-0.95703 0.46874,-0.44269 0.80077,-1.0091 0.9961,-1.69922 0.20831,-0.69008 0.31248,-1.51691 0.3125,-2.48047 -2e-5,-0.97654 -0.1107,-1.79034 -0.33203,-2.44141 -0.22138,-0.66403 -0.57945,-1.19789 -1.07422,-1.60156 -0.49481,-0.40362 -1.13934,-0.69008 -1.9336,-0.85937 -0.78126,-0.16925 -1.73829,-0.25388 -2.87109,-0.25391 l -2.67578,0 0,10.60547"
       inkscape:export-filename="/home/paavoto/src/neur2/src_copy/data/pattern/ABCD/B3.png"
       inkscape:export-xdpi="72"
       inkscape:export-ydpi="72" />
    <path
       inkscape:connector-curvature="0"
       id="path3114"
       style="font-size:40px;font-style:normal;font-variant:normal;font-weight:normal;font-stretch:normal;text-align:start;line-height:125%;letter-spacing:0px;word-spacing:0px;writing-mode:lr-tb;text-anchor:start;fill:#000000;fill-opacity:1;stroke:none;font-family:Serif;-inkscape-font-specification:Serif"
       d="m 245.89422,335.62587 c 1.36717,3e-5 2.55206,0.11721 3.55468,0.35156 1.01561,0.22138 1.85545,0.53388 2.51954,0.9375 0.67706,0.40367 1.17836,0.87893 1.5039,1.42578 0.33852,0.5469 0.50779,1.13935 0.50781,1.77734 -2e-5,0.42972 -0.0912,0.82034 -0.27343,1.17188 -0.1693,0.33856 -0.41018,0.63153 -0.72266,0.87891 -0.31252,0.23439 -0.68361,0.41668 -1.11328,0.54687 -0.41669,0.13023 -0.87242,0.19534 -1.36719,0.19531 -2e-5,-0.62497 -0.0847,-1.24346 -0.2539,-1.85547 -0.15627,-0.61195 -0.4232,-1.15882 -0.80079,-1.64062 -0.3646,-0.49477 -0.84637,-0.8919 -1.44531,-1.19141 -0.58595,-0.31247 -1.31512,-0.46872 -2.1875,-0.46875 -1.51043,3e-5 -2.79298,0.27998 -3.84765,0.83985 -1.0547,0.5469 -1.91408,1.35419 -2.57813,2.42187 -0.66407,1.05471 -1.14584,2.3633 -1.44531,3.92578 -0.29949,1.5495 -0.44923,3.32684 -0.44922,5.33203 -1e-5,1.78387 0.15624,3.41798 0.46875,4.90235 0.31249,1.48438 0.80728,2.76042 1.48437,3.82812 0.67708,1.0547 1.53645,1.87501 2.57813,2.46094 1.05468,0.58594 2.31769,0.87891 3.78906,0.87891 0.97655,0 1.83592,-0.0912 2.57813,-0.27344 0.75519,-0.19531 1.41925,-0.44922 1.99218,-0.76172 0.5729,-0.3125 1.0742,-0.67057 1.50391,-1.07422 0.44269,-0.41666 0.83331,-0.84635 1.17188,-1.28906 0.22133,0.14323 0.40362,0.33855 0.54687,0.58594 0.14321,0.2474 0.21482,0.57292 0.21484,0.97656 -2e-5,0.50782 -0.1758,1.02865 -0.52734,1.5625 -0.33856,0.52084 -0.8594,0.9961 -1.5625,1.42578 -0.70314,0.42968 -1.59507,0.78775 -2.67578,1.07422 -1.08075,0.27344 -2.3633,0.41016 -3.84766,0.41016 -1.9922,0 -3.7435,-0.35157 -5.2539,-1.05469 -1.51043,-0.70312 -2.77996,-1.69922 -3.8086,-2.98828 -1.01563,-1.28906 -1.78385,-2.83854 -2.30468,-4.64844 -0.52084,-1.80989 -0.78126,-3.81509 -0.78125,-6.01563 -10e-6,-2.16144 0.27343,-4.1406 0.82031,-5.9375 0.54687,-1.79685 1.35416,-3.33982 2.42187,-4.6289 1.08073,-1.28904 2.42187,-2.29164 4.02344,-3.00781 1.60155,-0.71612 3.45702,-1.07419 5.56641,-1.07422"
       inkscape:export-filename="/home/paavoto/src/neur2/src_copy/data/pattern/ABCD/C3.png"
       inkscape:export-xdpi="72"
       inkscape:export-ydpi="72" />
    <path
       inkscape:connector-curvature="0"
       id="path3116"
       style="font-size:40px;font-style:normal;font-variant:normal;font-weight:normal;font-stretch:normal;text-align:start;line-height:125%;letter-spacing:0px;word-spacing:0px;writing-mode:lr-tb;text-anchor:start;fill:#000000;fill-opacity:1;stroke:none;font-family:Serif;-inkscape-font-specification:Serif"
       d="m 314.2896,350.26453 c -3e-5,2.18752 -0.27346,4.16668 -0.82031,5.9375 -0.5469,1.75782 -1.3607,3.26173 -2.44141,4.51172 -1.08075,1.23699 -2.43492,2.19402 -4.0625,2.8711 -1.62762,0.66406 -3.52866,0.99609 -5.70312,0.99609 l -12.2461,0 0,-1.67969 0.50781,0 c 0.45573,10e-6 0.87891,-0.0326 1.26954,-0.0976 0.40364,-0.0651 0.7552,-0.19531 1.05468,-0.39063 0.29948,-0.20833 0.53385,-0.5013 0.70313,-0.8789 0.16926,-0.3776 0.2539,-0.87891 0.2539,-1.50391 l 0,-19.60938 c 0,-0.58591 -0.0911,-1.05466 -0.27343,-1.40625 -0.16928,-0.36455 -0.40365,-0.6445 -0.70313,-0.83984 -0.29948,-0.19528 -0.65104,-0.31898 -1.05469,-0.37109 -0.39062,-0.0651 -0.80729,-0.0976 -1.25,-0.0977 l -0.50781,0 0,-1.67969 12.2461,0 c 2.05727,3e-5 3.89321,0.31904 5.50781,0.95703 1.61456,0.62503 2.97524,1.543 4.08203,2.75391 1.11977,1.21096 1.97263,2.70185 2.55859,4.47266 0.58591,1.77085 0.87888,3.78908 0.87891,6.05468 m -13.96484,12.28516 c 1.58852,0 2.97524,-0.26692 4.16015,-0.80078 1.1979,-0.54687 2.19399,-1.34114 2.98828,-2.38281 0.79425,-1.04166 1.3867,-2.32421 1.77735,-3.84766 0.40362,-1.52343 0.60544,-3.27473 0.60547,-5.25391 -3e-5,-3.97133 -0.7943,-7.00518 -2.38282,-9.10156 -1.57554,-2.09633 -3.94532,-3.1445 -7.10937,-3.14453 l -3.51563,0 0,24.53125 3.47657,0"
       inkscape:export-filename="/home/paavoto/src/neur2/src_copy/data/pattern/ABCD/D3.png"
       inkscape:export-xdpi="72"
       inkscape:export-ydpi="72" />
    <path
       inkscape:connector-curvature="0"
       id="path3119"
       style="font-size:40px;font-style:normal;font-variant:normal;font-weight:normal;font-stretch:normal;text-align:start;line-height:125%;letter-spacing:0px;word-spacing:0px;writing-mode:lr-tb;text-anchor:start;fill:#000000;fill-opacity:1;stroke:none;font-family:Times New Roman;-inkscape-font-specification:'Times New Roman,'"
       d="m 137.00614,443.96206 -10.2539,0 -1.79688,4.17969 c -0.44271,1.02865 -0.66407,1.79688 -0.66406,2.30469 -1e-5,0.40365 0.18879,0.76172 0.5664,1.07422 0.39062,0.29948 1.22396,0.49479 2.5,0.58594 l 0,0.72265 -8.33984,0 0,-0.72265 c 1.10677,-0.19532 1.82291,-0.44922 2.14844,-0.76172 0.66406,-0.625 1.39973,-1.89453 2.20703,-3.8086 l 9.31641,-21.79687 0.68359,0 9.21875,22.03125 c 0.74216,1.77083 1.41273,2.92318 2.01172,3.45703 0.61195,0.52083 1.4583,0.8138 2.53906,0.87891 l 0,0.72265 -10.44922,0 0,-0.72265 c 1.05467,-0.0521 1.7643,-0.22787 2.12891,-0.52735 0.37758,-0.29948 0.56638,-0.66406 0.5664,-1.09375 -2e-5,-0.57291 -0.26043,-1.47786 -0.78125,-2.71484 l -1.60156,-3.8086 m -0.54687,-1.44531 -4.49219,-10.70312 -4.60938,10.70312 9.10157,0"
       inkscape:export-filename="/home/paavoto/src/neur2/src_copy/data/pattern/ABCD/A5.png"
       inkscape:export-xdpi="72"
       inkscape:export-ydpi="72" />
    <path
       inkscape:connector-curvature="0"
       id="path3121"
       style="font-size:40px;font-style:normal;font-variant:normal;font-weight:normal;font-stretch:normal;text-align:start;line-height:125%;letter-spacing:0px;word-spacing:0px;writing-mode:lr-tb;text-anchor:start;fill:#000000;fill-opacity:1;stroke:none;font-family:Times New Roman;-inkscape-font-specification:'Times New Roman,'"
       d="m 196.27332,439.01089 c 1.83592,0.39064 3.20962,1.01563 4.1211,1.875 1.26299,1.19792 1.8945,2.66277 1.89453,4.39453 -3e-5,1.31511 -0.41669,2.57813 -1.25,3.78906 -0.83336,1.19792 -1.97919,2.07683 -3.4375,2.63672 -1.44533,0.54687 -3.65887,0.82031 -6.64063,0.82031 l -12.5,0 0,-0.72265 0.9961,0 c 1.10676,0 1.90103,-0.35157 2.38281,-1.05469 0.29947,-0.45573 0.44921,-1.42578 0.44922,-2.91016 l 0,-17.10937 c -1e-5,-1.6406 -0.18881,-2.67576 -0.56641,-3.10547 -0.50781,-0.57289 -1.26302,-0.85935 -2.26562,-0.85938 l -0.9961,0 0,-0.72265 11.44532,0 c 2.1354,2e-5 3.84764,0.15627 5.13671,0.46875 1.95311,0.46877 3.44399,1.30211 4.47266,2.5 1.02862,1.18492 1.54295,2.5521 1.54297,4.10156 -2e-5,1.32814 -0.40367,2.51955 -1.21094,3.57422 -0.80731,1.04168 -1.99872,1.81642 -3.57422,2.32422 m -10.23437,-1.05469 c 0.48176,0.0912 1.02863,0.16278 1.64062,0.21484 0.62499,0.0391 1.30859,0.0586 2.05078,0.0586 1.90103,10e-6 3.32681,-0.20181 4.27735,-0.60547 0.96352,-0.41665 1.6992,-1.04816 2.20703,-1.89453 0.50779,-0.84634 0.7617,-1.77082 0.76172,-2.77344 -2e-5,-1.54946 -0.63153,-2.87106 -1.89453,-3.96483 -1.26304,-1.09373 -3.10549,-1.6406 -5.52735,-1.64063 -1.30209,3e-5 -2.47396,0.14325 -3.51562,0.42969 l 0,10.17577 m 0,12.65625 c 1.5104,0.35157 3.00129,0.52734 4.47265,0.52734 2.35676,0 4.15363,-0.52734 5.39063,-1.58202 1.23696,-1.0677 1.85545,-2.38282 1.85547,-3.94532 -2e-5,-1.02863 -0.27997,-2.01821 -0.83985,-2.96875 -0.55991,-0.95051 -1.47137,-1.6992 -2.73437,-2.24608 -1.26304,-0.54687 -2.82554,-0.8203 -4.6875,-0.82032 -0.8073,2e-5 -1.49741,0.013 -2.07031,0.0391 -0.57293,0.026 -1.03517,0.0716 -1.38672,0.13671 l 0,10.85938"
       inkscape:export-filename="/home/paavoto/src/neur2/src_copy/data/pattern/B5.png"
       inkscape:export-xdpi="72"
       inkscape:export-ydpi="72" />
    <path
       inkscape:connector-curvature="0"
       id="path3123"
       style="font-size:40px;font-style:normal;font-variant:normal;font-weight:normal;font-stretch:normal;text-align:start;line-height:125%;letter-spacing:0px;word-spacing:0px;writing-mode:lr-tb;text-anchor:start;fill:#000000;fill-opacity:1;stroke:none;font-family:Times New Roman;-inkscape-font-specification:'Times New Roman,'"
       d="m 258.3823,425.43667 0.60547,9.0039 -0.60547,0 c -0.80731,-2.69529 -1.95966,-4.63539 -3.45703,-5.82031 -1.49741,-1.18487 -3.29429,-1.77732 -5.39062,-1.77734 -1.75783,2e-5 -3.34637,0.44924 -4.76563,1.34765 -1.41928,0.88544 -2.53907,2.30471 -3.35937,4.25782 -0.8073,1.95314 -1.21095,4.38152 -1.21094,7.28515 -1e-5,2.39585 0.38411,4.47267 1.15234,6.23047 0.76822,1.75782 1.92057,3.10547 3.45703,4.04297 1.54947,0.9375 3.31379,1.40625 5.29297,1.40625 1.71873,0 3.23566,-0.36458 4.55078,-1.09375 1.31509,-0.74218 2.7604,-2.20703 4.33594,-4.39453 l 0.60547,0.39063 c -1.32815,2.35678 -2.87763,4.08204 -4.64844,5.17579 -1.77085,1.09375 -3.87371,1.64062 -6.30859,1.64062 -4.38803,0 -7.78647,-1.6276 -10.19531,-4.88281 -1.79688,-2.42187 -2.69532,-5.27343 -2.69532,-8.55469 0,-2.64321 0.59245,-5.0716 1.77735,-7.28516 1.18489,-2.21351 2.81249,-3.92575 4.88281,-5.13671 2.08332,-1.22395 4.35546,-1.83591 6.81641,-1.83594 1.91404,3e-5 3.80206,0.46877 5.66406,1.40625 0.54685,0.28648 0.93748,0.42971 1.17187,0.42969 0.35154,2e-5 0.65753,-0.12368 0.91797,-0.3711 0.33852,-0.35154 0.57941,-0.83982 0.72266,-1.46484 l 0.68359,0"
       inkscape:export-filename="/home/paavoto/src/neur2/src_copy/data/pattern/C5.png"
       inkscape:export-xdpi="72"
       inkscape:export-ydpi="72" />
    <path
       inkscape:connector-curvature="0"
       id="path3125"
       style="font-size:40px;font-style:normal;font-variant:normal;font-weight:normal;font-stretch:normal;text-align:start;line-height:125%;letter-spacing:0px;word-spacing:0px;writing-mode:lr-tb;text-anchor:start;fill:#000000;fill-opacity:1;stroke:none;font-family:Times New Roman;-inkscape-font-specification:'Times New Roman,'"
       d="m 291.62409,452.52651 0,-0.72265 0.9961,0 c 1.11979,0 1.91406,-0.35808 2.38281,-1.07422 0.28645,-0.42969 0.42968,-1.39323 0.42969,-2.89063 l 0,-17.10937 c -10e-6,-1.65363 -0.1823,-2.68878 -0.54688,-3.10547 -0.50781,-0.57289 -1.26302,-0.85935 -2.26562,-0.85938 l -0.9961,0 0,-0.72265 10.78125,0 c 3.95832,2e-5 6.96613,0.44924 9.02344,1.34765 2.07029,0.89846 3.73045,2.39586 4.98047,4.49219 1.26299,2.09637 1.8945,4.51825 1.89453,7.26563 -3e-5,3.6849 -1.11982,6.76433 -3.35937,9.23828 -2.51305,2.76042 -6.34117,4.14062 -11.48438,4.14062 l -11.83594,0 m 7.5586,-1.91406 c 1.65363,0.36458 3.04035,0.54688 4.16015,0.54687 3.02082,1e-5 5.52733,-1.06119 7.51954,-3.18359 1.99216,-2.12239 2.98825,-4.99999 2.98828,-8.63281 -3e-5,-3.65884 -0.99612,-6.54295 -2.98828,-8.65235 -1.99221,-2.10935 -4.5508,-3.16403 -7.67579,-3.16406 -1.17188,3e-5 -2.50652,0.18883 -4.0039,0.56641 l 0,22.51953"
       inkscape:export-filename="/home/paavoto/src/neur2/src_copy/data/pattern/D5.png"
       inkscape:export-xdpi="72"
       inkscape:export-ydpi="72" />
    <path
       inkscape:connector-curvature="0"
       id="path3092"
       style="font-size:40px;font-style:normal;font-variant:normal;font-weight:normal;font-stretch:normal;text-align:start;line-height:125%;letter-spacing:0px;word-spacing:0px;writing-mode:lr-tb;text-anchor:start;fill:#000000;fill-opacity:1;stroke:none;font-family:Purisa;-inkscape-font-specification:Purisa"
       d="m 347.26459,254.15216 c 0,-0.4 0.28,-1 0.84,-1.8 0.55999,-0.82666 0.83999,-1.42666 0.84,-1.8 -1e-5,-0.50666 0.18666,-0.82666 0.56,-0.96 0.29333,-0.10666 0.67999,-0.82666 1.16,-2.16 0.50666,-1.33333 0.94666,-2.22666 1.32,-2.68 0.37332,-0.42666 0.78666,-1.14666 1.24,-2.16 0.45332,-1.01332 1.33332,-3.22665 2.64,-6.64 0.82665,-2.13331 1.97332,-4.70664 3.44,-7.72 1.46665,-3.0133 2.37332,-4.63997 2.72,-4.88 0.31998,-0.18664 0.53331,-0.27997 0.64,-0.28 0.18665,3e-5 0.45331,0.12003 0.8,0.36 0.29331,0.21336 0.86665,1.72003 1.72,4.52 0.87998,2.80002 1.31998,4.60002 1.32,5.4 0.0266,0.53335 0.27998,1.74669 0.76,3.64 0.47998,1.86668 0.81331,3.34668 1,4.44 0.15997,1.09334 0.57331,2.82668 1.24,5.2 0.69331,2.34667 1.03997,3.8 1.04,4.36 -3e-5,0.56 -0.18669,0.84 -0.56,0.84 -0.29336,0 -0.70669,-0.14666 -1.24,-0.44 -0.24003,-0.13333 -0.44002,-0.28 -0.6,-0.44 -0.16002,-0.16 -0.29336,-0.33333 -0.4,-0.52 -0.08,-0.18666 -0.17336,-0.48 -0.28,-0.88 -0.10669,-0.4 -0.20002,-0.78666 -0.28,-1.16 -0.08,-0.37333 -0.21336,-0.97333 -0.4,-1.8 -0.16002,-0.82666 -0.33336,-1.62666 -0.52,-2.4 l -0.76,-3.16 -1.96,0.24 c -1.44002,0.21335 -3.02668,0.38668 -4.76,0.52 l -2.8,0.24 -1.16,2.2 c -2.16001,4.02667 -3.61334,6.94667 -4.36,8.76 -0.61334,1.44 -1.26667,2.16 -1.96,2.16 -0.29334,0 -0.57334,-0.08 -0.84,-0.24 -0.26667,-0.16 -0.4,-0.41333 -0.4,-0.76 m 17.4,-16.48 c -2e-5,-0.71998 -0.30669,-2.45331 -0.92,-5.2 -0.58669,-2.77331 -1.02669,-4.15997 -1.32,-4.16 -0.21335,3e-5 -0.90668,1.18669 -2.08,3.56 -1.14668,2.34669 -2.08001,4.48002 -2.8,6.4 l -0.48,1.24 3.16,-0.24 c 1.94665,-0.15999 3.17331,-0.31999 3.68,-0.48 0.50665,-0.18665 0.75998,-0.55998 0.76,-1.12"
       inkscape:export-filename="/home/paavoto/src/neur2/src_copy/data/pattern/ABCD/A2.png"
       inkscape:export-xdpi="72"
       inkscape:export-ydpi="72" />
    <path
       inkscape:connector-curvature="0"
       id="path3094"
       style="font-size:40px;font-style:normal;font-variant:normal;font-weight:normal;font-stretch:normal;text-align:start;line-height:125%;letter-spacing:0px;word-spacing:0px;writing-mode:lr-tb;text-anchor:start;fill:#000000;fill-opacity:1;stroke:none;font-family:Purisa;-inkscape-font-specification:Purisa"
       d="m 416.86137,254.03216 c -0.34668,0 -0.84001,0.12 -1.48,0.36 -0.64001,0.21333 -1.10667,0.32 -1.4,0.32 -0.34667,0 -0.64001,-0.12 -0.88,-0.36 -0.21334,-0.26667 -0.40001,-0.65333 -0.56,-1.16 -0.13334,-0.53333 -0.24,-1.13333 -0.32,-1.8 -0.08,-0.66666 -0.16,-1.49333 -0.24,-2.48 -0.0533,-0.98666 -0.12,-1.97333 -0.2,-2.96 -0.0533,-0.98666 -0.14667,-2.15999 -0.28,-3.52 -0.10667,-1.38665 -0.24,-2.70665 -0.4,-3.96 -0.29334,-2.63998 -0.52,-4.95998 -0.68,-6.96 l -0.28,-3.6 -1.56,0 c -1.33333,3e-5 -2,-0.29331 -2,-0.88 0,-0.8533 2.05333,-1.8133 6.16,-2.88 1.65333,-0.42664 4.07999,-0.63997 7.28,-0.64 1.22665,3e-5 2.03999,0.0667 2.44,0.2 0.42665,0.1067 0.85332,0.3867 1.28,0.84 0.66665,0.77336 0.99998,1.40003 1,1.88 -2e-5,1.22669 -0.34668,2.53336 -1.04,3.92 -0.66668,1.38669 -1.34668,2.56002 -2.04,3.52 -0.66668,0.96002 -1.00001,1.53335 -1,1.72 -10e-6,0.16002 0.18665,0.24002 0.56,0.24 0.53332,2e-5 1.33332,0.33335 2.4,1 1.09332,0.64002 1.79998,1.22668 2.12,1.76 0.63998,1.04002 0.95998,2.57335 0.96,4.6 -2e-5,3.17334 -0.89335,5.85334 -2.68,8.04 -1.76001,2.18667 -3.42668,3.28 -5,3.28 -0.26668,0 -0.61334,-0.08 -1.04,-0.24 -0.42668,-0.16 -0.80001,-0.24 -1.12,-0.24 m 5.16,-27.64 c -0.40001,-0.42664 -1.37335,-0.63997 -2.92,-0.64 -0.96001,3e-5 -1.84001,0.0667 -2.64,0.2 -1.97334,0.3467 -3.08001,0.60003 -3.32,0.76 -0.26667,0.18669 -0.40001,0.65336 -0.4,1.4 l 0,0.8 c -1e-5,1.62669 0.15999,3.53336 0.48,5.72 0.18666,1.44002 0.35999,2.37335 0.52,2.8 0.15999,0.40002 0.42666,0.60002 0.8,0.6 0.58666,2e-5 1.73332,-0.99998 3.44,-3 1.73332,-1.99998 2.93332,-3.71998 3.6,-5.16 0.66665,-1.49331 0.99999,-2.34664 1,-2.56 -10e-6,-0.18664 -0.18668,-0.49331 -0.56,-0.92 m 2.56,17.36 c -2e-5,-3.49332 -1.29335,-5.23998 -3.88,-5.24 -0.66668,2e-5 -1.34668,0.10668 -2.04,0.32 -0.66668,0.18668 -1.42668,0.48002 -2.28,0.88 -0.82667,0.37335 -1.40001,0.61335 -1.72,0.72 -0.26667,0.10668 -0.45334,0.26668 -0.56,0.48 -0.08,0.21335 -0.12001,0.68001 -0.12,1.4 -1e-5,0.72001 0.04,1.88001 0.12,3.48 0.0533,0.96001 0.0933,1.72001 0.12,2.28 0.0533,0.53334 0.10666,1.06667 0.16,1.6 0.08,0.53334 0.18666,0.92 0.32,1.16 0.13333,0.24 0.26666,0.48 0.4,0.72 0.15999,0.21334 0.38666,0.36 0.68,0.44 0.29332,0.08 0.58666,0.14667 0.88,0.2 0.31999,0.0267 0.74666,0.0533 1.28,0.08 0.13332,0 0.30666,0.0133 0.52,0.04 0.21332,0 0.35999,0 0.44,0 0.66665,0 1.17332,-0.12 1.52,-0.36 0.34665,-0.24 0.94665,-0.86666 1.8,-1.88 0.90665,-1.01333 1.51998,-1.90666 1.84,-2.68 0.34665,-0.79999 0.51998,-2.01332 0.52,-3.64"
       inkscape:export-filename="/home/paavoto/src/neur2/src_copy/data/pattern/ABCD/B2.png"
       inkscape:export-xdpi="72"
       inkscape:export-ydpi="72" />
    <path
       inkscape:connector-curvature="0"
       id="path3096"
       style="font-size:40px;font-style:normal;font-variant:normal;font-weight:normal;font-stretch:normal;text-align:start;line-height:125%;letter-spacing:0px;word-spacing:0px;writing-mode:lr-tb;text-anchor:start;fill:#000000;fill-opacity:1;stroke:none;font-family:Purisa;-inkscape-font-specification:Purisa"
       d="m 484.97811,243.23216 c -2e-5,0.32001 -0.22669,0.92001 -0.68,1.8 -0.42669,0.88001 -1.06669,1.89334 -1.92,3.04 -0.82669,1.14667 -1.76002,2.25334 -2.8,3.32 -1.01335,1.04 -2.20001,1.92 -3.56,2.64 -1.36001,0.72 -2.69334,1.08 -4,1.08 -3.22667,0 -5.84,-2.05333 -7.84,-6.16 -0.26667,-0.53333 -0.4,-2.34666 -0.4,-5.44 0,-5.57332 0.26667,-9.29331 0.8,-11.16 0.66666,-2.45331 2.30666,-4.59997 4.92,-6.44 2.61332,-1.86664 5.09332,-2.79997 7.44,-2.8 1.22665,3e-5 2.34665,0.40003 3.36,1.2 1.03998,0.77336 1.55998,1.64003 1.56,2.6 -2e-5,0.34669 -0.20002,0.52003 -0.6,0.52 -0.29335,3e-5 -0.60002,-0.0933 -0.92,-0.28 -0.32002,-0.18664 -0.56002,-0.42664 -0.72,-0.72 -0.26668,-0.58664 -0.68002,-0.87997 -1.24,-0.88 -1.38668,3e-5 -3.06668,0.4667 -5.04,1.4 -1.94668,0.93336 -3.44001,1.97336 -4.48,3.12 -0.88001,0.96002 -1.54667,2.44002 -2,4.44 -0.45334,2.00002 -0.68,5.02668 -0.68,9.08 0,1.92001 0.25333,3.48001 0.76,4.68 0.50666,1.20001 1.23999,2.17334 2.2,2.92 0.95999,0.74667 1.94666,1.12 2.96,1.12 0.69332,0 1.66666,-0.29333 2.92,-0.88 1.25332,-0.58666 2.13332,-1.15999 2.64,-1.72 l 2.04,-2.04 c 0.63998,-0.61332 1.30665,-1.39999 2,-2.36 0.71998,-0.98666 1.29331,-1.77332 1.72,-2.36 0.45331,-0.58665 0.82665,-0.87999 1.12,-0.88 0.29331,1e-5 0.43998,0.38668 0.44,1.16"
       inkscape:export-filename="/home/paavoto/src/neur2/src_copy/data/pattern/ABCD/C2.png"
       inkscape:export-xdpi="72"
       inkscape:export-ydpi="72" />
    <path
       inkscape:connector-curvature="0"
       id="path3098"
       style="font-size:40px;font-style:normal;font-variant:normal;font-weight:normal;font-stretch:normal;text-align:start;line-height:125%;letter-spacing:0px;word-spacing:0px;writing-mode:lr-tb;text-anchor:start;fill:#000000;fill-opacity:1;stroke:none;font-family:Purisa;-inkscape-font-specification:Purisa"
       d="m 517.65485,226.59216 c 0,-0.37331 0.17333,-0.82664 0.52,-1.36 0.34666,-0.5333 0.66666,-0.79997 0.96,-0.8 0.34666,3e-5 0.74666,-0.31997 1.2,-0.96 0.42666,-0.63997 1.73333,-1.07997 3.92,-1.32 2.79999,-0.26664 4.63999,-0.39997 5.52,-0.4 1.11998,3e-5 2.49332,0.1467 4.12,0.44 4.66664,0.80003 7.94664,1.9867 9.84,3.56 1.8933,1.54669 2.83997,3.89336 2.84,7.04 -3e-5,2.80002 -0.48003,5.45335 -1.44,7.96 -0.93336,2.50668 -2.1467,4.60001 -3.64,6.28 -1.49336,1.68 -3.06669,3.08 -4.72,4.2 -1.65335,1.09333 -3.26669,1.82667 -4.84,2.2 -0.66668,0.16 -1.16002,0.41333 -1.48,0.76 -0.32002,0.37333 -0.49335,0.72 -0.52,1.04 -0.0267,0.32 -0.16002,0.6 -0.4,0.84 -0.21335,0.26666 -0.57335,0.4 -1.08,0.4 -0.82668,0 -1.24001,-0.16 -1.24,-0.48 -10e-6,-0.18667 -0.10668,-0.34667 -0.32,-0.48 -0.21335,-0.13334 -0.45335,-0.24 -0.72,-0.32 -0.24001,-0.08 -0.46668,-0.25333 -0.68,-0.52 -0.21334,-0.26667 -0.32001,-0.61333 -0.32,-1.04 -10e-6,-0.72 0.25332,-1.17333 0.76,-1.36 0.50665,-0.18667 0.75999,-1.32 0.76,-3.4 -10e-6,-1.09333 -0.0667,-2.19999 -0.2,-3.32 -0.13335,-1.14666 -0.36001,-2.86666 -0.68,-5.16 -0.29334,-2.31998 -0.57334,-4.87998 -0.84,-7.68 l -0.64,-6.92 -1.44,0.12 c -0.61334,0.0534 -1.20001,0.28003 -1.76,0.68 -0.56001,0.37336 -1.01334,0.73336 -1.36,1.08 -0.34667,0.34669 -0.61334,0.52003 -0.8,0.52 -0.18667,3e-5 -0.45334,-0.18664 -0.8,-0.56 -0.34667,-0.39997 -0.52,-0.74664 -0.52,-1.04 m 9.56,0.12 c -10e-6,0.82669 0.37332,3.96002 1.12,9.4 0.77332,5.44001 1.15998,8.98668 1.16,10.64 -2e-5,0.53334 -0.0267,1.06667 -0.08,1.6 l -0.32,2.04 2.16,0 c 2.37331,0 5.06664,-1.68 8.08,-5.04 1.70664,-1.91999 2.85331,-3.85332 3.44,-5.8 0.6133,-1.94665 0.91997,-4.31998 0.92,-7.12 -3e-5,-1.17331 -0.0934,-1.98664 -0.28,-2.44 -0.16003,-0.45331 -0.5467,-1.02664 -1.16,-1.72 -0.61336,-0.66664 -1.30669,-1.15997 -2.08,-1.48 -0.77336,-0.31997 -2.04002,-0.65331 -3.8,-1 -2.80002,-0.53331 -5.21335,-0.79997 -7.24,-0.8 -0.74668,3e-5 -1.25335,0.0934 -1.52,0.28 -0.26668,0.18669 -0.40001,0.66669 -0.4,1.44"
       inkscape:export-filename="/home/paavoto/src/neur2/src_copy/data/pattern/ABCD/D2.png"
       inkscape:export-xdpi="72"
       inkscape:export-ydpi="72" />
    <path
       inkscape:connector-curvature="0"
       id="path3083"
       style="font-size:40px;font-style:normal;font-variant:normal;font-weight:normal;font-stretch:normal;text-align:start;line-height:125%;letter-spacing:0px;word-spacing:0px;writing-mode:lr-tb;text-anchor:start;fill:#000000;fill-opacity:1;stroke:none;font-family:Phetsarath OT;-inkscape-font-specification:Phetsarath OT"
       d="m 365.34122,356.11414 -11.25,0 -3.0664,8.76953 -3.96485,0 10.39063,-29.16015 4.80468,0 10.25391,29.16015 -4.16016,0 -3.00781,-8.76953 m -1.03515,-3.10547 -4.49219,-13.28125 -4.78516,13.28125 9.27735,0"
       inkscape:export-filename="/home/paavoto/src/neur2/src_copy/data/pattern/ABCD/A4.png"
       inkscape:export-xdpi="72"
       inkscape:export-ydpi="72" />
    <path
       inkscape:connector-curvature="0"
       id="path3085"
       style="font-size:40px;font-style:normal;font-variant:normal;font-weight:normal;font-stretch:normal;text-align:start;line-height:125%;letter-spacing:0px;word-spacing:0px;writing-mode:lr-tb;text-anchor:start;fill:#000000;fill-opacity:1;stroke:none;font-family:Phetsarath OT;-inkscape-font-specification:Phetsarath OT"
       d="m 407.03738,364.88368 0,-29.16015 11.83594,0 c 2.74738,3e-5 4.85675,0.67711 6.32812,2.03125 1.54946,1.39325 2.3242,3.18362 2.32422,5.37109 -2e-5,2.98179 -1.34768,5.10418 -4.04297,6.36719 2.79946,1.08074 4.47915,2.68881 5.03907,4.82422 0.15622,0.53386 0.24737,1.10678 0.27343,1.71875 -2e-5,0.16928 -2e-5,0.34506 0,0.52734 -2e-5,2.34375 -0.74872,4.30338 -2.24609,5.87891 -1.51044,1.6276 -3.62632,2.4414 -6.34766,2.4414 l -13.16406,0 m 3.71094,-16.60156 7.20703,0 c 1.92707,2e-5 3.33983,-0.34503 4.23828,-1.03516 1.06769,-0.83331 1.60154,-2.03774 1.60156,-3.61328 -2e-5,-1.56247 -0.53387,-2.76039 -1.60156,-3.59375 -0.89845,-0.69007 -2.31121,-1.03513 -4.23828,-1.03515 l -7.20703,0 0,9.27734 m 14.33594,8.32031 c -2e-5,-2.3177 -0.95054,-3.84764 -2.85157,-4.58984 -0.69012,-0.29947 -1.4909,-0.44921 -2.40234,-0.44922 l -9.08203,0 0,10.03906 9.08203,0 c 1.73175,10e-6 3.02732,-0.46874 3.88672,-1.40625 0.91144,-0.95051 1.36717,-2.14843 1.36719,-3.59375"
       inkscape:export-filename="/home/paavoto/src/neur2/src_copy/data/pattern/ABCD/B4.png"
       inkscape:export-xdpi="72"
       inkscape:export-ydpi="72" />
    <path
       inkscape:connector-curvature="0"
       id="path3087"
       style="font-size:40px;font-style:normal;font-variant:normal;font-weight:normal;font-stretch:normal;text-align:start;line-height:125%;letter-spacing:0px;word-spacing:0px;writing-mode:lr-tb;text-anchor:start;fill:#000000;fill-opacity:1;stroke:none;font-family:Phetsarath OT;-inkscape-font-specification:Phetsarath OT"
       d="m 488.02065,344.55165 -3.78906,0 c -0.40367,-2.00519 -1.1133,-3.47003 -2.12891,-4.39454 -1.43231,-1.18487 -3.35288,-1.80335 -5.76171,-1.85546 -3.41147,2e-5 -5.931,1.53648 -7.5586,4.60937 -1.06771,1.99221 -1.60157,4.4857 -1.60156,7.48047 -1e-5,4.53126 1.26952,7.85157 3.80859,9.96094 1.57551,1.30208 3.47004,1.95312 5.6836,1.95312 2.90363,0 5.03904,-1.02864 6.40625,-3.08594 0.15623,-0.20832 0.28643,-0.42968 0.39062,-0.66406 0.58592,-1.11978 1.02863,-2.6302 1.32813,-4.53125 l 3.82812,0 c -0.87242,7.70834 -4.86981,11.5625 -11.99219,11.5625 -3.76303,0 -6.73828,-1.13281 -8.92578,-3.39844 -2.82552,-2.90364 -4.23828,-6.8229 -4.23828,-11.75781 0,-4.88279 1.36068,-8.80206 4.08203,-11.75781 2.1875,-2.43487 5.26692,-3.65231 9.23828,-3.65234 6.34113,3e-5 10.08462,3.17711 11.23047,9.53125"
       inkscape:export-filename="/home/paavoto/src/neur2/src_copy/data/pattern/ABCD/C4.png"
       inkscape:export-xdpi="72"
       inkscape:export-ydpi="72" />
    <path
       inkscape:connector-curvature="0"
       id="path3089"
       style="font-size:40px;font-style:normal;font-variant:normal;font-weight:normal;font-stretch:normal;text-align:start;line-height:125%;letter-spacing:0px;word-spacing:0px;writing-mode:lr-tb;text-anchor:start;fill:#000000;fill-opacity:1;stroke:none;font-family:Phetsarath OT;-inkscape-font-specification:Phetsarath OT"
       d="m 522.61721,364.88367 0,-29.16015 11.23047,0 c 4.34894,3e-5 7.5781,1.75784 9.6875,5.27344 l 0.8789,1.71875 c 0.88539,2.16147 1.3281,4.68101 1.32813,7.5586 -3e-5,5.58595 -1.54951,9.64193 -4.64844,12.16797 -1.94012,1.6276 -4.35549,2.4414 -7.24609,2.4414 l -11.23047,0 m 3.71093,-3.28125 6.89454,0 c 4.63539,10e-6 7.44789,-2.41536 8.4375,-7.24609 0.23435,-1.19791 0.35154,-2.53905 0.35156,-4.02344 -2e-5,-6.56248 -2.23961,-10.27341 -6.71875,-11.13281 -0.66408,-0.13018 -1.35418,-0.19529 -2.07031,-0.19531 l -6.89454,0 0,22.59765"
       inkscape:export-filename="/home/paavoto/src/neur2/src_copy/data/pattern/ABCD/D4.png"
       inkscape:export-xdpi="72"
       inkscape:export-ydpi="72" />
    <path
       inkscape:connector-curvature="0"
       id="path3074"
       style="font-size:40px;font-style:normal;font-variant:normal;font-weight:normal;font-stretch:condensed;text-align:start;line-height:125%;letter-spacing:0px;word-spacing:0px;writing-mode:lr-tb;text-anchor:start;fill:#000000;fill-opacity:1;stroke:none;font-family:Impact;-inkscape-font-specification:Impact Condensed"
       d="m 367.94205,423.47379 4.70703,31.62109 -8.41797,0 -0.41015,-5.68359 -2.94922,0 -0.48828,5.68359 -8.51563,0 4.17969,-31.62109 11.89453,0 m -4.35547,20.33203 c -0.41668,-3.58072 -0.83334,-8.00128 -1.25,-13.26172 -0.83334,6.04167 -1.35417,10.46224 -1.5625,13.26172 l 2.8125,0"
       inkscape:export-filename="/home/paavoto/src/neur2/src_copy/data/pattern/A6.png"
       inkscape:export-xdpi="72"
       inkscape:export-ydpi="72" />
    <path
       inkscape:connector-curvature="0"
       id="path3076"
       style="font-size:40px;font-style:normal;font-variant:normal;font-weight:normal;font-stretch:condensed;text-align:start;line-height:125%;letter-spacing:0px;word-spacing:0px;writing-mode:lr-tb;text-anchor:start;fill:#000000;fill-opacity:1;stroke:none;font-family:Impact;-inkscape-font-specification:Impact Condensed"
       d="m 409.98266,423.47378 8.20313,0 c 2.59113,3e-5 4.55076,0.20185 5.8789,0.60547 1.34113,0.40367 2.42186,1.22398 3.24219,2.46093 0.82029,1.22399 1.23045,3.20315 1.23047,5.9375 -2e-5,1.84898 -0.29299,3.13804 -0.87891,3.86719 -0.57293,0.72919 -1.71225,1.28908 -3.41797,1.67969 1.90103,0.4297 3.19009,1.14585 3.86719,2.14844 0.67706,0.98959 1.01561,2.51303 1.01563,4.57031 l 0,2.92969 c -2e-5,2.13542 -0.24742,3.71745 -0.74219,4.74609 -0.48179,1.02865 -1.25653,1.73177 -2.32422,2.10937 -1.06773,0.37761 -3.25522,0.56641 -6.5625,0.56641 l -9.51172,0 0,-31.62109 m 8.22266,5.41015 0,7.03125 c 0.35155,-0.013 0.62499,-0.0195 0.82031,-0.0195 0.80728,2e-5 1.3216,-0.19529 1.54297,-0.58594 0.22134,-0.40362 0.33202,-1.54294 0.33203,-3.41796 -10e-6,-0.98956 -0.0912,-1.67967 -0.27344,-2.07032 -0.1823,-0.40362 -0.42319,-0.65752 -0.72265,-0.76172 -0.28647,-0.10414 -0.85288,-0.16273 -1.69922,-0.17578 m 0,11.95313 0,8.84765 c 1.15884,-0.039 1.89452,-0.22134 2.20703,-0.54687 0.32551,-0.32552 0.48827,-1.1263 0.48828,-2.40234 l 0,-2.94922 c -10e-6,-1.35416 -0.14324,-2.17447 -0.42969,-2.46094 -0.28647,-0.28645 -1.04168,-0.44921 -2.26562,-0.48828"
       inkscape:export-filename="/home/paavoto/src/neur2/src_copy/data/pattern/B6.png"
       inkscape:export-xdpi="72"
       inkscape:export-ydpi="72" />
    <path
       inkscape:connector-curvature="0"
       id="path3078"
       style="font-size:40px;font-style:normal;font-variant:normal;font-weight:normal;font-stretch:condensed;text-align:start;line-height:125%;letter-spacing:0px;word-spacing:0px;writing-mode:lr-tb;text-anchor:start;fill:#000000;fill-opacity:1;stroke:none;font-family:Impact;-inkscape-font-specification:Impact Condensed"
       d="m 486.5643,437.26285 -8.22265,0 0,-5.50781 c -1e-5,-1.60154 -0.0912,-2.59763 -0.27344,-2.98828 -0.16928,-0.40362 -0.5534,-0.60545 -1.15234,-0.60547 -0.6771,2e-5 -1.10678,0.24091 -1.28907,0.72265 -0.1823,0.4818 -0.27344,1.52347 -0.27343,3.125 l 0,14.6875 c -10e-6,1.53647 0.0911,2.53907 0.27343,3.00782 0.18229,0.46875 0.59244,0.70313 1.23047,0.70312 0.61197,1e-5 1.00911,-0.23437 1.19141,-0.70312 0.1953,-0.46875 0.29296,-1.56901 0.29297,-3.30079 l 0,-3.96484 8.22265,0 0,1.23047 c -2e-5,3.26824 -0.23439,5.58594 -0.70312,6.95312 -0.45575,1.36719 -1.47788,2.56511 -3.06641,3.59375 -1.57553,1.02865 -3.52215,1.54297 -5.83984,1.54297 -2.40886,0 -4.39454,-0.4362 -5.95703,-1.30859 -1.56251,-0.8724 -2.59766,-2.07682 -3.10547,-3.61328 -0.50781,-1.54948 -0.76172,-3.87369 -0.76172,-6.97266 l 0,-9.23828 c 0,-2.27862 0.0781,-3.98435 0.23438,-5.11719 0.15624,-1.1458 0.61848,-2.24606 1.38671,-3.30078 0.78125,-1.05466 1.85547,-1.88148 3.22266,-2.48047 1.3802,-0.61194 2.96223,-0.91793 4.74609,-0.91797 2.42187,4e-5 4.42056,0.46879 5.9961,1.40625 1.5755,0.93753 2.61066,2.10941 3.10547,3.51563 0.49477,1.39325 0.74216,3.56773 0.74218,6.52344 l 0,3.00781"
       inkscape:export-filename="/home/paavoto/src/neur2/src_copy/data/pattern/C6.png"
       inkscape:export-xdpi="72"
       inkscape:export-ydpi="72" />
    <path
       inkscape:connector-curvature="0"
       id="path3080"
       style="font-size:40px;font-style:normal;font-variant:normal;font-weight:normal;font-stretch:condensed;text-align:start;line-height:125%;letter-spacing:0px;word-spacing:0px;writing-mode:lr-tb;text-anchor:start;fill:#000000;fill-opacity:1;stroke:none;font-family:Impact;-inkscape-font-specification:Impact Condensed"
       d="m 524.62056,423.47379 6.15234,0 c 3.97134,2e-5 6.65363,0.18232 8.04687,0.54687 1.40624,0.36462 2.47394,0.96357 3.20313,1.79688 0.72915,0.83336 1.18488,1.76434 1.36719,2.79297 0.18227,1.01565 0.27341,3.02085 0.27343,6.01562 l 0,11.07422 c -2e-5,2.83855 -0.13673,4.73959 -0.41015,5.70312 -0.26044,0.95053 -0.72268,1.69922 -1.38672,2.2461 -0.66408,0.53385 -1.48439,0.91146 -2.46094,1.13281 -0.97658,0.20833 -2.44793,0.3125 -4.41406,0.3125 l -10.37109,0 0,-31.62109 m 8.22265,5.41015 0,20.80078 c 1.18489,10e-6 1.91405,-0.23437 2.1875,-0.70312 0.27343,-0.48177 0.41015,-1.77734 0.41016,-3.88672 l 0,-12.28516 c -10e-6,-1.43226 -0.0456,-2.35023 -0.13672,-2.7539 -0.0912,-0.40362 -0.29949,-0.69659 -0.625,-0.87891 -0.32553,-0.19529 -0.93751,-0.29294 -1.83594,-0.29298"
       inkscape:export-filename="/home/paavoto/src/neur2/src_copy/data/pattern/D6.png"
       inkscape:export-xdpi="72"
       inkscape:export-ydpi="72" />
    <path
       inkscape:connector-curvature="0"
       id="path3065"
       style="font-size:40px;font-style:normal;font-variant:normal;font-weight:normal;font-stretch:normal;text-align:start;line-height:125%;letter-spacing:0px;word-spacing:0px;writing-mode:lr-tb;text-anchor:start;fill:#000000;fill-opacity:1;stroke:none;font-family:FreeMono;-inkscape-font-specification:FreeMono"
       d="m 138.11111,521.98643 -10.64,0 -2.16,5.88 3.16,0 c 0.71999,10e-6 1.07999,0.26667 1.08,0.8 -1e-5,0.56001 -0.36001,0.84 -1.08,0.84 l -6.04,0 c -0.72,0 -1.08,-0.27999 -1.08,-0.84 0,-0.53333 0.36,-0.79999 1.08,-0.8 l 1.24,0 7.16,-19.24 -4.8,0 c -0.72001,3e-5 -1.08001,-0.27997 -1.08,-0.84 -1e-5,-0.53331 0.35999,-0.79997 1.08,-0.8 l 8.16,0 7.88,20.88 1.48,0 c 0.71997,10e-6 1.07997,0.26667 1.08,0.8 -3e-5,0.56001 -0.36003,0.84 -1.08,0.84 l -6.24,0 c -0.72002,0 -1.08002,-0.27999 -1.08,-0.84 -2e-5,-0.53333 0.35998,-0.79999 1.08,-0.8 l 3.04,0 -2.24,-5.88 m -0.6,-1.64 -4.48,-11.72 -0.6,0 -4.32,11.72 9.4,0"
       inkscape:export-filename="/home/paavoto/src/neur2/src_copy/data/pattern/A7.png"
       inkscape:export-xdpi="72"
       inkscape:export-ydpi="72" />
    <path
       inkscape:connector-curvature="0"
       id="path3067"
       style="font-size:40px;font-style:normal;font-variant:normal;font-weight:normal;font-stretch:normal;text-align:start;line-height:125%;letter-spacing:0px;word-spacing:0px;writing-mode:lr-tb;text-anchor:start;fill:#000000;fill-opacity:1;stroke:none;font-family:FreeMono;-inkscape-font-specification:FreeMono"
       d="m 185.99318,527.86643 0,-19.24 -2.16,0 c -0.72,3e-5 -1.08,-0.27997 -1.08,-0.84 0,-0.53331 0.36,-0.79997 1.08,-0.8 l 10.32,0 c 1.94665,3e-5 3.57331,0.56003 4.88,1.68 1.30665,1.09336 1.95998,2.46669 1.96,4.12 -2e-5,1.97335 -1.13335,3.57335 -3.4,4.8 3.38664,1.20002 5.07998,3.13335 5.08,5.8 -2e-5,1.68001 -0.65336,3.12001 -1.96,4.32 -1.28002,1.20001 -2.82669,1.8 -4.64,1.8 l -12.24,0 c -0.72,0 -1.08,-0.27999 -1.08,-0.84 0,-0.53333 0.36,-0.79999 1.08,-0.8 l 2.16,0 m 1.64,-10.88 5.88,0 c 1.70665,2e-5 3.10665,-0.39998 4.2,-1.2 1.09331,-0.79998 1.63998,-1.81331 1.64,-3.04 -2e-5,-1.17331 -0.49335,-2.14664 -1.48,-2.92 -0.98668,-0.79997 -2.21335,-1.19997 -3.68,-1.2 l -6.56,0 0,8.36 m 13.4,6.4 c -2e-5,-0.55999 -0.12002,-1.09332 -0.36,-1.6 -0.21336,-0.50665 -0.57335,-0.99999 -1.08,-1.48 -0.50669,-0.50665 -1.28002,-0.90665 -2.32,-1.2 -1.01335,-0.31998 -2.24002,-0.47998 -3.68,-0.48 l -5.96,0 0,9.24 8.32,0 c 1.41331,10e-6 2.61331,-0.42666 3.6,-1.28 0.98664,-0.87999 1.47998,-1.94666 1.48,-3.2"
       inkscape:export-filename="/home/paavoto/src/neur2/src_copy/data/pattern/B7.png"
       inkscape:export-xdpi="72"
       inkscape:export-ydpi="72" />
    <path
       inkscape:connector-curvature="0"
       id="path3069"
       style="font-size:40px;font-style:normal;font-variant:normal;font-weight:normal;font-stretch:normal;text-align:start;line-height:125%;letter-spacing:0px;word-spacing:0px;writing-mode:lr-tb;text-anchor:start;fill:#000000;fill-opacity:1;stroke:none;font-family:FreeMono;-inkscape-font-specification:FreeMono"
       d="m 241.01527,516.50643 c 0,-0.50665 0.0667,-1.11998 0.2,-1.84 0.15999,-0.74665 0.46666,-1.61331 0.92,-2.6 0.45333,-0.98664 1.01333,-1.87998 1.68,-2.68 0.66666,-0.79997 1.59999,-1.47997 2.8,-2.04 1.19999,-0.58664 2.55999,-0.87997 4.08,-0.88 2.69332,3e-5 4.99998,0.92003 6.92,2.76 l 0,-1.16 c -2e-5,-0.71997 0.27998,-1.07997 0.84,-1.08 0.53331,3e-5 0.79998,0.36003 0.8,1.08 l 0,4.48 c -2e-5,0.72002 -0.28002,1.08002 -0.84,1.08 -0.48002,2e-5 -0.74669,-0.31998 -0.8,-0.96 -0.08,-1.22664 -0.81335,-2.29331 -2.2,-3.2 -1.36002,-0.90664 -2.93335,-1.35997 -4.72,-1.36 -2.21335,3e-5 -4.10668,0.85336 -5.68,2.56 -1.57334,1.68002 -2.36001,3.70669 -2.36,6.08 l 0,2.84 c -1e-5,2.40001 0.86666,4.49334 2.6,6.28 1.73332,1.76001 3.77332,2.64001 6.12,2.64 1.38665,10e-6 2.62665,-0.27999 3.72,-0.84 1.09331,-0.55999 2.17331,-1.47999 3.24,-2.76 0.23998,-0.26666 0.47998,-0.39999 0.72,-0.4 0.53331,10e-6 0.79998,0.25334 0.8,0.76 -2e-5,0.24001 -0.21336,0.61334 -0.64,1.12 -0.42669,0.50667 -0.98669,1.05334 -1.68,1.64 -0.69335,0.56001 -1.60002,1.05334 -2.72,1.48 -1.12002,0.42667 -2.26668,0.64 -3.44,0.64 -2.72001,0 -5.13334,-1.03999 -7.24,-3.12 -2.08001,-2.10666 -3.12,-4.50665 -3.12,-7.2 l 0,-3.32"
       inkscape:export-filename="/home/paavoto/src/neur2/src_copy/data/pattern/C7.png"
       inkscape:export-xdpi="72"
       inkscape:export-ydpi="72" />
    <path
       inkscape:connector-curvature="0"
       id="path3071"
       style="font-size:40px;font-style:normal;font-variant:normal;font-weight:normal;font-stretch:normal;text-align:start;line-height:125%;letter-spacing:0px;word-spacing:0px;writing-mode:lr-tb;text-anchor:start;fill:#000000;fill-opacity:1;stroke:none;font-family:FreeMono;-inkscape-font-specification:FreeMono"
       d="m 301.05736,525.00929 0,-19.24 -1.36,0 c -0.72,3e-5 -1.08,-0.27997 -1.08,-0.84 0,-0.53331 0.36,-0.79997 1.08,-0.8 l 8.8,0 c 2.58665,3e-5 4.75998,0.98669 6.52,2.96 1.78664,1.94669 2.67998,4.33335 2.68,7.16 l 0,2.24 c -2e-5,2.85335 -0.89336,5.26668 -2.68,7.24 -1.76002,1.94667 -3.93335,2.92 -6.52,2.92 l -8.8,0 c -0.72,0 -1.08,-0.27999 -1.08,-0.84 0,-0.53333 0.36,-0.79999 1.08,-0.8 l 1.36,0 m 15,-11.08 c -2e-5,-0.53332 -0.12002,-1.19998 -0.36,-2 -0.24002,-0.79998 -0.62669,-1.67998 -1.16,-2.64 -0.50669,-0.98664 -1.30669,-1.81331 -2.4,-2.48 -1.06668,-0.69331 -2.30668,-1.03997 -3.72,-1.04 l -5.72,0 0,19.24 6,0 c 1.91998,1e-5 3.62665,-0.82666 5.12,-2.48 1.49331,-1.65332 2.23998,-3.54665 2.24,-5.68 l 0,-2.92"
       inkscape:export-filename="/home/paavoto/src/neur2/src_copy/data/pattern/D7.png"
       inkscape:export-xdpi="72"
       inkscape:export-ydpi="72" />
  </g>
</svg>
